<?xml version="1.0" encoding="UTF-8" standalone="no"?>
<!DOCTYPE svg PUBLIC "-//W3C//DTD SVG 1.1//EN"
 "http://www.w3.org/Graphics/SVG/1.1/DTD/svg11.dtd">
<!-- Generated by graphviz version 2.40.1 (20161225.0304)
 -->
<!-- Title: hierarchy Pages: 1 -->
<svg width="4122pt" height="1309pt"
 viewBox="0.00 0.00 4122.30 1308.80" xmlns="http://www.w3.org/2000/svg" xmlns:xlink="http://www.w3.org/1999/xlink">
<g id="graph0" class="graph" transform="scale(1 1) rotate(0) translate(4 1304.8)">
<title>hierarchy</title>
<polygon fill="#ffffff" stroke="transparent" points="-4,4 -4,-1304.8 4118.2998,-1304.8 4118.2998,4 -4,4"/>
<!-- 1 -->
<g id="node1" class="node">
<title>1</title>
<polygon fill="#f2f2f2" stroke="#000000" points="0,-765.3 0,-831.7 466.2218,-831.7 466.2218,-765.3 0,-765.3"/>
<text text-anchor="middle" x="233.1109" y="-815.1" font-family="Times,serif" font-size="14.00" fill="#000000">«Library»</text>
<text text-anchor="middle" x="233.1109" y="-798.3" font-family="Times,serif" font-size="14.00" fill="#000000">ECDSA</text>
<polyline fill="none" stroke="#000000" points="0,-790.1 466.2218,-790.1 "/>
<text text-anchor="start" x="8" y="-773.5" font-family="Times,serif" font-size="14.00" fill="#000000"># extractSignature(bytes sigData, uint256 offset) : (bytes32 r, bytes32 s, uint8 v)</text>
</g>
<!-- 21 -->
<g id="node20" class="node">
<title>21</title>
<polygon fill="#f2f2f2" stroke="#000000" points="355.7052,-87.1 355.7052,-699.1 986.5166,-699.1 986.5166,-87.1 355.7052,-87.1"/>
<text text-anchor="middle" x="671.1109" y="-682.5" font-family="Times,serif" font-size="14.00" fill="#000000">CoreWallet</text>
<polyline fill="none" stroke="#000000" points="355.7052,-674.3 986.5166,-674.3 "/>
<text text-anchor="start" x="363.7052" y="-657.7" font-family="Times,serif" font-size="14.00" fill="#000000">+ EIP191_VERSION_DATA : byte</text>
<text text-anchor="start" x="363.7052" y="-640.9" font-family="Times,serif" font-size="14.00" fill="#000000">+ EIP191_PREFIX : byte</text>
<text text-anchor="start" x="363.7052" y="-624.1" font-family="Times,serif" font-size="14.00" fill="#000000">+ VERSION : string</text>
<text text-anchor="start" x="363.7052" y="-607.3" font-family="Times,serif" font-size="14.00" fill="#000000">+ COMPOSITE_PLACEHOLDER : address</text>
<text text-anchor="start" x="363.7052" y="-590.5" font-family="Times,serif" font-size="14.00" fill="#000000">+ AUTH_VERSION_INCREMENTOR : uint256</text>
<text text-anchor="start" x="363.7052" y="-573.7" font-family="Times,serif" font-size="14.00" fill="#000000">+ authVersion : uint256</text>
<text text-anchor="start" x="363.7052" y="-556.9" font-family="Times,serif" font-size="14.00" fill="#000000">+ authorizations : mapping(uint256 : uint256 )</text>
<text text-anchor="start" x="363.7052" y="-540.1" font-family="Times,serif" font-size="14.00" fill="#000000">+ nonces : mapping(address : uint256 )</text>
<text text-anchor="start" x="363.7052" y="-523.3" font-family="Times,serif" font-size="14.00" fill="#000000">+ delegates : mapping(bytes4 : address )</text>
<text text-anchor="start" x="363.7052" y="-506.5" font-family="Times,serif" font-size="14.00" fill="#000000">+ recoveryAddress : address</text>
<text text-anchor="start" x="363.7052" y="-489.7" font-family="Times,serif" font-size="14.00" fill="#000000">+ initialized : bool</text>
<polyline fill="none" stroke="#000000" points="355.7052,-481.5 986.5166,-481.5 "/>
<text text-anchor="start" x="363.7052" y="-464.9" font-family="Times,serif" font-size="14.00" fill="#000000">«modifier» onlyRecoveryAddress()</text>
<text text-anchor="start" x="363.7052" y="-448.1" font-family="Times,serif" font-size="14.00" fill="#000000">«modifier» onlyOnce()</text>
<text text-anchor="start" x="363.7052" y="-431.3" font-family="Times,serif" font-size="14.00" fill="#000000">«modifier» onlyInvoked()</text>
<text text-anchor="start" x="363.7052" y="-414.5" font-family="Times,serif" font-size="14.00" fill="#000000">«event» Authorized(address authorizedAddress, uint256 cosigner)</text>
<text text-anchor="start" x="363.7052" y="-397.7" font-family="Times,serif" font-size="14.00" fill="#000000">«event» EmergencyRecovery(address authorizedAddress, uint256 cosigner)</text>
<text text-anchor="start" x="363.7052" y="-380.9" font-family="Times,serif" font-size="14.00" fill="#000000">«event» RecoveryAddressChanged(address previousRecoveryAddress, address newRecoveryAddress)</text>
<text text-anchor="start" x="363.7052" y="-364.1" font-family="Times,serif" font-size="14.00" fill="#000000">«event» Received(address from, uint value)</text>
<text text-anchor="start" x="363.7052" y="-347.3" font-family="Times,serif" font-size="14.00" fill="#000000">«event» InvocationSuccess(bytes32 hash, uint256 result, uint256 numOperations)</text>
<text text-anchor="start" x="363.7052" y="-330.5" font-family="Times,serif" font-size="14.00" fill="#000000">«event» DelegateUpdated(bytes4 interfaceId, address delegate)</text>
<text text-anchor="start" x="363.7052" y="-313.7" font-family="Times,serif" font-size="14.00" fill="#000000">+ init(address _authorizedAddress, uint256 _cosigner, address _recoveryAddress)</text>
<text text-anchor="start" x="363.7052" y="-296.9" font-family="Times,serif" font-size="14.00" fill="#000000">+ «fallback»()</text>
<text text-anchor="start" x="363.7052" y="-280.1" font-family="Times,serif" font-size="14.00" fill="#000000">+ setDelegate(bytes4 _interfaceId, address _delegate)</text>
<text text-anchor="start" x="363.7052" y="-263.3" font-family="Times,serif" font-size="14.00" fill="#000000">+ setAuthorized(address _authorizedAddress, uint256 _cosigner)</text>
<text text-anchor="start" x="363.7052" y="-246.5" font-family="Times,serif" font-size="14.00" fill="#000000">+ emergencyRecovery(address _authorizedAddress, uint256 _cosigner)</text>
<text text-anchor="start" x="363.7052" y="-229.7" font-family="Times,serif" font-size="14.00" fill="#000000">+ setRecoveryAddress(address _recoveryAddress)</text>
<text text-anchor="start" x="363.7052" y="-212.9" font-family="Times,serif" font-size="14.00" fill="#000000">+ recoverGas(uint256 _version, address[] _keys)</text>
<text text-anchor="start" x="363.7052" y="-196.1" font-family="Times,serif" font-size="14.00" fill="#000000">+ isValidSignature(bytes32 hash, bytes _signature) : (bytes4)</text>
<text text-anchor="start" x="363.7052" y="-179.3" font-family="Times,serif" font-size="14.00" fill="#000000">+ supportsInterface(bytes4 interfaceID) : (bool)</text>
<text text-anchor="start" x="363.7052" y="-162.5" font-family="Times,serif" font-size="14.00" fill="#000000">+ invoke0(bytes data)</text>
<text text-anchor="start" x="363.7052" y="-145.7" font-family="Times,serif" font-size="14.00" fill="#000000">+ invoke1CosignerSends(uint8 v, bytes32 r, bytes32 s, uint256 nonce, address authorizedAddress, bytes data)</text>
<text text-anchor="start" x="363.7052" y="-128.9" font-family="Times,serif" font-size="14.00" fill="#000000">+ invoke1SignerSends(uint8 v, bytes32 r, bytes32 s, bytes data)</text>
<text text-anchor="start" x="363.7052" y="-112.1" font-family="Times,serif" font-size="14.00" fill="#000000">+ invoke2(uint8[] v, bytes32[] r, bytes32[] s, uint256 nonce, address authorizedAddress, bytes data)</text>
<text text-anchor="start" x="363.7052" y="-95.3" font-family="Times,serif" font-size="14.00" fill="#000000"># internalInvoke(bytes32 operationHash, bytes data)</text>
</g>
<!-- 1&#45;&gt;21 -->
<g id="edge21" class="edge">
<title>1&#45;&gt;21</title>
<path fill="none" stroke="#000000" d="M276.7815,-758.0797C297.7931,-738.6321 325.0092,-713.4416 355.3224,-685.3846"/>
<polygon fill="#000000" stroke="#000000" points="269.3269,-764.9795 273.6091,-754.8843 272.9964,-761.5832 276.6658,-758.1868 276.6658,-758.1868 276.6658,-758.1868 272.9964,-761.5832 279.7226,-761.4893 269.3269,-764.9795 269.3269,-764.9795"/>
</g>
<!-- 2 -->
<g id="node2" class="node">
<title>2</title>
<polygon fill="#f2f2f2" stroke="#000000" points="1609.4609,-1028.3 1609.4609,-1169.9 1806.7609,-1169.9 1806.7609,-1028.3 1609.4609,-1028.3"/>
<text text-anchor="middle" x="1708.1109" y="-1153.3" font-family="Times,serif" font-size="14.00" fill="#000000">Migrations</text>
<polyline fill="none" stroke="#000000" points="1609.4609,-1145.1 1806.7609,-1145.1 "/>
<text text-anchor="start" x="1617.4609" y="-1128.5" font-family="Times,serif" font-size="14.00" fill="#000000">+ owner : address</text>
<text text-anchor="start" x="1617.4609" y="-1111.7" font-family="Times,serif" font-size="14.00" fill="#000000">+ lastCompletedMigration : uint</text>
<polyline fill="none" stroke="#000000" points="1609.4609,-1103.5 1806.7609,-1103.5 "/>
<text text-anchor="start" x="1617.4609" y="-1086.9" font-family="Times,serif" font-size="14.00" fill="#000000">+ constructor()</text>
<text text-anchor="start" x="1617.4609" y="-1070.1" font-family="Times,serif" font-size="14.00" fill="#000000">«modifier» restricted()</text>
<text text-anchor="start" x="1617.4609" y="-1053.3" font-family="Times,serif" font-size="14.00" fill="#000000">+ setCompleted(uint completed)</text>
<text text-anchor="start" x="1617.4609" y="-1036.5" font-family="Times,serif" font-size="14.00" fill="#000000">+ upgrade(address newAddress)</text>
</g>
<!-- 3 -->
<g id="node3" class="node">
<title>3</title>
<polygon fill="#f2f2f2" stroke="#000000" points="483.7894,-752.9 483.7894,-844.1 842.4324,-844.1 842.4324,-752.9 483.7894,-752.9"/>
<text text-anchor="middle" x="663.1109" y="-827.5" font-family="Times,serif" font-size="14.00" fill="#000000">«Abstract»</text>
<text text-anchor="middle" x="663.1109" y="-810.7" font-family="Times,serif" font-size="14.00" fill="#000000">ERC1271</text>
<polyline fill="none" stroke="#000000" points="483.7894,-802.5 842.4324,-802.5 "/>
<text text-anchor="start" x="491.7894" y="-785.9" font-family="Times,serif" font-size="14.00" fill="#000000"># ERC1271_VALIDSIGNATURE : bytes4</text>
<polyline fill="none" stroke="#000000" points="483.7894,-777.7 842.4324,-777.7 "/>
<text text-anchor="start" x="491.7894" y="-761.1" font-family="Times,serif" font-size="14.00" fill="#000000">+ isValidSignature(bytes32 hash, bytes _signature) : (bytes4)</text>
</g>
<!-- 3&#45;&gt;21 -->
<g id="edge11" class="edge">
<title>3&#45;&gt;21</title>
<path fill="none" stroke="#000000" d="M664.2109,-742.7571C664.4671,-729.7764 664.7575,-715.0573 665.0708,-699.1831"/>
<polygon fill="none" stroke="#000000" points="660.7111,-742.7164 664.0131,-752.7835 667.7098,-742.8545 660.7111,-742.7164"/>
</g>
<!-- 4 -->
<g id="node4" class="node">
<title>4</title>
<polygon fill="#f2f2f2" stroke="#000000" points="1941.7273,-1065.9 1941.7273,-1132.3 2224.4945,-1132.3 2224.4945,-1065.9 1941.7273,-1065.9"/>
<text text-anchor="middle" x="2083.1109" y="-1115.7" font-family="Times,serif" font-size="14.00" fill="#000000">«Interface»</text>
<text text-anchor="middle" x="2083.1109" y="-1098.9" font-family="Times,serif" font-size="14.00" fill="#000000">ERC165</text>
<polyline fill="none" stroke="#000000" points="1941.7273,-1090.7 2224.4945,-1090.7 "/>
<text text-anchor="start" x="1949.7273" y="-1074.1" font-family="Times,serif" font-size="14.00" fill="#000000">+ supportsInterface(bytes4 interfaceID) : (bool)</text>
</g>
<!-- 5 -->
<g id="node5" class="node">
<title>5</title>
<polygon fill="#f2f2f2" stroke="#000000" points="1417.0607,-.5 1417.0607,-50.1 1777.1611,-50.1 1777.1611,-.5 1417.0607,-.5"/>
<text text-anchor="middle" x="1597.1109" y="-33.5" font-family="Times,serif" font-size="14.00" fill="#000000">ERC165Checker</text>
<polyline fill="none" stroke="#000000" points="1417.0607,-25.3 1777.1611,-25.3 "/>
<text text-anchor="start" x="1425.0607" y="-8.7" font-family="Times,serif" font-size="14.00" fill="#000000">+ checkInterfaces(address wallet, bytes4[] interfaces) : (bool)</text>
</g>
<!-- 6 -->
<g id="node6" class="node">
<title>6</title>
<polygon fill="#f2f2f2" stroke="#000000" points="1019.3299,-339.1 1019.3299,-447.1 1534.8919,-447.1 1534.8919,-339.1 1019.3299,-339.1"/>
<text text-anchor="middle" x="1277.1109" y="-430.5" font-family="Times,serif" font-size="14.00" fill="#000000">ERC165Query</text>
<polyline fill="none" stroke="#000000" points="1019.3299,-422.3 1534.8919,-422.3 "/>
<text text-anchor="start" x="1027.3299" y="-405.7" font-family="Times,serif" font-size="14.00" fill="#000000">+ _INTERFACE_ID_INVALID : bytes4</text>
<text text-anchor="start" x="1027.3299" y="-388.9" font-family="Times,serif" font-size="14.00" fill="#000000">+ _INTERFACE_ID_ERC165 : bytes4</text>
<polyline fill="none" stroke="#000000" points="1019.3299,-380.7 1534.8919,-380.7 "/>
<text text-anchor="start" x="1027.3299" y="-364.1" font-family="Times,serif" font-size="14.00" fill="#000000">+ doesContractImplementInterface(address _contract, bytes4 _interfaceId) : (bool)</text>
<text text-anchor="start" x="1027.3299" y="-347.3" font-family="Times,serif" font-size="14.00" fill="#000000"># noThrowCall(address _contract, bytes4 _interfaceId) : (uint256 success, uint256 result)</text>
</g>
<!-- 6&#45;&gt;5 -->
<g id="edge1" class="edge">
<title>6&#45;&gt;5</title>
<path fill="none" stroke="#000000" d="M1331.0814,-331.0677C1402.5662,-248.9048 1525.4054,-107.7165 1575.1948,-50.4899"/>
<polygon fill="none" stroke="#000000" points="1328.2513,-328.9882 1324.328,-338.8298 1333.5324,-333.5829 1328.2513,-328.9882"/>
</g>
<!-- 23 -->
<g id="node22" class="node">
<title>23</title>
<polygon fill="#f2f2f2" stroke="#000000" points="925.472,-.5 925.472,-50.1 1398.7498,-50.1 1398.7498,-.5 925.472,-.5"/>
<text text-anchor="middle" x="1162.1109" y="-33.5" font-family="Times,serif" font-size="14.00" fill="#000000">QueryableWallet</text>
<polyline fill="none" stroke="#000000" points="925.472,-25.3 1398.7498,-25.3 "/>
<text text-anchor="start" x="933.472" y="-8.7" font-family="Times,serif" font-size="14.00" fill="#000000">+ constructor(address _authorized, uint256 _cosigner, address _recoveryAddress)</text>
</g>
<!-- 6&#45;&gt;23 -->
<g id="edge14" class="edge">
<title>6&#45;&gt;23</title>
<path fill="none" stroke="#000000" d="M1257.0901,-329.0684C1231.3151,-246.633 1187.7358,-107.255 1169.987,-50.4899"/>
<polygon fill="none" stroke="#000000" points="1253.8174,-330.33 1260.1423,-338.8298 1260.4985,-328.241 1253.8174,-330.33"/>
</g>
<!-- 7 -->
<g id="node7" class="node">
<title>7</title>
<polygon fill="#f2f2f2" stroke="#000000" points="1445.2659,-761.3 1445.2659,-835.7 1780.9559,-835.7 1780.9559,-761.3 1445.2659,-761.3"/>
<text text-anchor="middle" x="1613.1109" y="-819.1" font-family="Times,serif" font-size="14.00" fill="#000000">ERC223Receiver</text>
<polyline fill="none" stroke="#000000" points="1445.2659,-810.9 1780.9559,-810.9 "/>
<text text-anchor="start" x="1453.2659" y="-794.3" font-family="Times,serif" font-size="14.00" fill="#000000">+ ERC223_ID : bytes4</text>
<polyline fill="none" stroke="#000000" points="1445.2659,-786.1 1780.9559,-786.1 "/>
<text text-anchor="start" x="1453.2659" y="-769.5" font-family="Times,serif" font-size="14.00" fill="#000000">+ tokenFallback(address _from, uint _value, bytes _data)</text>
</g>
<!-- 7&#45;&gt;21 -->
<g id="edge10" class="edge">
<title>7&#45;&gt;21</title>
<path fill="none" stroke="#000000" d="M1513.3954,-757.816C1488.8148,-749.1993 1462.3058,-741.067 1437.1109,-735.6 1250.991,-695.2143 1184.8078,-775.4459 1010.1109,-699.6 1002.1961,-696.1637 994.342,-692.4663 986.5577,-688.5361"/>
<polygon fill="none" stroke="#000000" points="1512.4799,-761.2054 1523.0745,-761.2679 1514.8313,-754.6121 1512.4799,-761.2054"/>
</g>
<!-- 8 -->
<g id="node29" class="node">
<title>8</title>
<polygon fill="#cfcfcf" stroke="#000000" points="1560.4089,-334.7 1560.4089,-451.5 1665.8129,-451.5 1665.8129,-334.7 1560.4089,-334.7"/>
<text text-anchor="middle" x="1613.1109" y="-434.9" font-family="Times,serif" font-size="14.00" fill="#000000">«struct»</text>
<text text-anchor="middle" x="1613.1109" y="-418.1" font-family="Times,serif" font-size="14.00" fill="#000000">TKN</text>
<polyline fill="none" stroke="#000000" points="1560.4089,-409.9 1665.8129,-409.9 "/>
<text text-anchor="start" x="1568.4089" y="-393.3" font-family="Times,serif" font-size="14.00" fill="#000000">sender : address</text>
<text text-anchor="start" x="1568.4089" y="-376.5" font-family="Times,serif" font-size="14.00" fill="#000000">value : uint</text>
<text text-anchor="start" x="1568.4089" y="-359.7" font-family="Times,serif" font-size="14.00" fill="#000000">data : bytes</text>
<text text-anchor="start" x="1568.4089" y="-342.9" font-family="Times,serif" font-size="14.00" fill="#000000">sig : bytes4</text>
</g>
<!-- 7&#45;&gt;8 -->
<g id="edge20" class="edge">
<title>7&#45;&gt;8</title>
<path fill="none" stroke="#000000" d="M1613.1109,-748.7571C1613.1109,-673.6984 1613.1109,-531.7813 1613.1109,-451.7779"/>
<polygon fill="#000000" stroke="#000000" points="1613.111,-749.0876 1617.1109,-755.0876 1613.1109,-761.0876 1609.1109,-755.0876 1613.111,-749.0876"/>
</g>
<!-- 9 -->
<g id="node8" class="node">
<title>9</title>
<polygon fill="#f2f2f2" stroke="#000000" points="860.6028,-765.3 860.6028,-831.7 1427.619,-831.7 1427.619,-765.3 860.6028,-765.3"/>
<text text-anchor="middle" x="1144.1109" y="-815.1" font-family="Times,serif" font-size="14.00" fill="#000000">ERC721Receivable</text>
<polyline fill="none" stroke="#000000" points="860.6028,-806.9 1427.619,-806.9 "/>
<text text-anchor="start" x="868.6028" y="-790.3" font-family="Times,serif" font-size="14.00" fill="#000000">+ onERC721Received(address _from, uint256 _tokenId, bytes data) : (bytes4)</text>
<text text-anchor="start" x="868.6028" y="-773.5" font-family="Times,serif" font-size="14.00" fill="#000000">+ onERC721Received(address _operator, address _from, uint256 _tokenId, bytes _data) : (bytes4)</text>
</g>
<!-- 9&#45;&gt;21 -->
<g id="edge9" class="edge">
<title>9&#45;&gt;21</title>
<path fill="none" stroke="#000000" d="M1088.6095,-759.4294C1064.1189,-741.7092 1035.2484,-720.1555 1010.1109,-699.6 1002.4332,-693.3217 994.697,-686.9258 986.9263,-680.4388"/>
<polygon fill="none" stroke="#000000" points="1086.5761,-762.2782 1096.7354,-765.285 1090.6685,-756.5991 1086.5761,-762.2782"/>
</g>
<!-- 10 -->
<g id="node9" class="node">
<title>10</title>
<polygon fill="#f2f2f2" stroke="#000000" points="418.1628,-1053.5 418.1628,-1144.7 872.059,-1144.7 872.059,-1053.5 418.1628,-1053.5"/>
<text text-anchor="middle" x="645.1109" y="-1128.1" font-family="Times,serif" font-size="14.00" fill="#000000">«Abstract»</text>
<text text-anchor="middle" x="645.1109" y="-1111.3" font-family="Times,serif" font-size="14.00" fill="#000000">ERC721ReceiverDraft</text>
<polyline fill="none" stroke="#000000" points="418.1628,-1103.1 872.059,-1103.1 "/>
<text text-anchor="start" x="426.1628" y="-1086.5" font-family="Times,serif" font-size="14.00" fill="#000000"># ERC721_RECEIVED_DRAFT : bytes4</text>
<polyline fill="none" stroke="#000000" points="418.1628,-1078.3 872.059,-1078.3 "/>
<text text-anchor="start" x="426.1628" y="-1061.7" font-family="Times,serif" font-size="14.00" fill="#000000">+ onERC721Received(address _from, uint256 _tokenId, bytes data) : (bytes4)</text>
</g>
<!-- 10&#45;&gt;9 -->
<g id="edge2" class="edge">
<title>10&#45;&gt;9</title>
<path fill="none" stroke="#000000" d="M695.9306,-1046.0682C740.9386,-1001.5378 810.181,-938.737 880.1109,-897.4 926.2468,-870.1281 981.2154,-848.0921 1029.0198,-831.8023"/>
<polygon fill="none" stroke="#000000" points="693.2572,-1043.7911 688.6432,-1053.3285 698.1977,-1048.7501 693.2572,-1043.7911"/>
</g>
<!-- 11 -->
<g id="node10" class="node">
<title>11</title>
<polygon fill="#f2f2f2" stroke="#000000" points="889.6028,-1053.5 889.6028,-1144.7 1456.619,-1144.7 1456.619,-1053.5 889.6028,-1053.5"/>
<text text-anchor="middle" x="1173.1109" y="-1128.1" font-family="Times,serif" font-size="14.00" fill="#000000">«Abstract»</text>
<text text-anchor="middle" x="1173.1109" y="-1111.3" font-family="Times,serif" font-size="14.00" fill="#000000">ERC721ReceiverFinal</text>
<polyline fill="none" stroke="#000000" points="889.6028,-1103.1 1456.619,-1103.1 "/>
<text text-anchor="start" x="897.6028" y="-1086.5" font-family="Times,serif" font-size="14.00" fill="#000000"># ERC721_RECEIVED_FINAL : bytes4</text>
<polyline fill="none" stroke="#000000" points="889.6028,-1078.3 1456.619,-1078.3 "/>
<text text-anchor="start" x="897.6028" y="-1061.7" font-family="Times,serif" font-size="14.00" fill="#000000">+ onERC721Received(address _operator, address _from, uint256 _tokenId, bytes _data) : (bytes4)</text>
</g>
<!-- 11&#45;&gt;9 -->
<g id="edge3" class="edge">
<title>11&#45;&gt;9</title>
<path fill="none" stroke="#000000" d="M1167.7411,-1043.4397C1161.7585,-981.4262 1152.2797,-883.1736 1147.342,-831.9921"/>
<polygon fill="none" stroke="#000000" points="1164.2622,-1043.8277 1168.7064,-1053.4453 1171.2299,-1043.1554 1164.2622,-1043.8277"/>
</g>
<!-- 12 -->
<g id="node11" class="node">
<title>12</title>
<polygon fill="#f2f2f2" stroke="#000000" points="2368.6057,-756.9 2368.6057,-840.1 2477.6161,-840.1 2477.6161,-756.9 2368.6057,-756.9"/>
<text text-anchor="middle" x="2423.1109" y="-823.5" font-family="Times,serif" font-size="14.00" fill="#000000">HasNoEther</text>
<polyline fill="none" stroke="#000000" points="2368.6057,-815.3 2477.6161,-815.3 "/>
<text text-anchor="start" x="2376.6057" y="-798.7" font-family="Times,serif" font-size="14.00" fill="#000000">+ constructor()</text>
<text text-anchor="start" x="2376.6057" y="-781.9" font-family="Times,serif" font-size="14.00" fill="#000000">+ «fallback»()</text>
<text text-anchor="start" x="2376.6057" y="-765.1" font-family="Times,serif" font-size="14.00" fill="#000000">+ reclaimEther()</text>
</g>
<!-- 26 -->
<g id="node25" class="node">
<title>26</title>
<polygon fill="#f2f2f2" stroke="#000000" points="1935.8482,-313.9 1935.8482,-472.3 2588.3736,-472.3 2588.3736,-313.9 1935.8482,-313.9"/>
<text text-anchor="middle" x="2262.1109" y="-455.7" font-family="Times,serif" font-size="14.00" fill="#000000">WalletFactory</text>
<polyline fill="none" stroke="#000000" points="1935.8482,-447.5 2588.3736,-447.5 "/>
<text text-anchor="start" x="1943.8482" y="-430.9" font-family="Times,serif" font-size="14.00" fill="#000000">+ cloneWalletAddress : address</text>
<polyline fill="none" stroke="#000000" points="1935.8482,-422.7 2588.3736,-422.7 "/>
<text text-anchor="start" x="1943.8482" y="-406.1" font-family="Times,serif" font-size="14.00" fill="#000000">«event» WalletCreated(address wallet, address authorizedAddress, bool full)</text>
<text text-anchor="start" x="1943.8482" y="-389.3" font-family="Times,serif" font-size="14.00" fill="#000000">+ constructor(address _cloneWalletAddress)</text>
<text text-anchor="start" x="1943.8482" y="-372.5" font-family="Times,serif" font-size="14.00" fill="#000000">+ deployCloneWallet(address _recoveryAddress, address _authorizedAddress, uint256 _cosigner)</text>
<text text-anchor="start" x="1943.8482" y="-355.7" font-family="Times,serif" font-size="14.00" fill="#000000">+ deployCloneWallet2(address _recoveryAddress, address _authorizedAddress, uint256 _cosigner, bytes32 _salt)</text>
<text text-anchor="start" x="1943.8482" y="-338.9" font-family="Times,serif" font-size="14.00" fill="#000000">+ deployFullWallet(address _recoveryAddress, address _authorizedAddress, uint256 _cosigner)</text>
<text text-anchor="start" x="1943.8482" y="-322.1" font-family="Times,serif" font-size="14.00" fill="#000000">+ deployFullWallet2(address _recoveryAddress, address _authorizedAddress, uint256 _cosigner, bytes32 _salt)</text>
</g>
<!-- 12&#45;&gt;26 -->
<g id="edge16" class="edge">
<title>12&#45;&gt;26</title>
<path fill="none" stroke="#000000" d="M2402.7564,-747.2471C2375.2612,-678.014 2325.9829,-553.9304 2293.6665,-472.5574"/>
<polygon fill="none" stroke="#000000" points="2399.5436,-748.6399 2406.4875,-756.642 2406.0493,-746.0562 2399.5436,-748.6399"/>
</g>
<!-- 13 -->
<g id="node12" class="node">
<title>13</title>
<polygon fill="#f2f2f2" stroke="#000000" points="2300.6931,-1011.5 2300.6931,-1186.7 2755.5287,-1186.7 2755.5287,-1011.5 2300.6931,-1011.5"/>
<text text-anchor="middle" x="2528.1109" y="-1170.1" font-family="Times,serif" font-size="14.00" fill="#000000">Ownable</text>
<polyline fill="none" stroke="#000000" points="2300.6931,-1161.9 2755.5287,-1161.9 "/>
<text text-anchor="start" x="2308.6931" y="-1145.3" font-family="Times,serif" font-size="14.00" fill="#000000">+ owner : address</text>
<polyline fill="none" stroke="#000000" points="2300.6931,-1137.1 2755.5287,-1137.1 "/>
<text text-anchor="start" x="2308.6931" y="-1120.5" font-family="Times,serif" font-size="14.00" fill="#000000">«event» OwnershipRenounced(address previousOwner)</text>
<text text-anchor="start" x="2308.6931" y="-1103.7" font-family="Times,serif" font-size="14.00" fill="#000000">«event» OwnershipTransferred(address previousOwner, address newOwner)</text>
<text text-anchor="start" x="2308.6931" y="-1086.9" font-family="Times,serif" font-size="14.00" fill="#000000">+ constructor()</text>
<text text-anchor="start" x="2308.6931" y="-1070.1" font-family="Times,serif" font-size="14.00" fill="#000000">«modifier» onlyOwner()</text>
<text text-anchor="start" x="2308.6931" y="-1053.3" font-family="Times,serif" font-size="14.00" fill="#000000">+ renounceOwnership()</text>
<text text-anchor="start" x="2308.6931" y="-1036.5" font-family="Times,serif" font-size="14.00" fill="#000000">+ transferOwnership(address _newOwner)</text>
<text text-anchor="start" x="2308.6931" y="-1019.7" font-family="Times,serif" font-size="14.00" fill="#000000"># _transferOwnership(address _newOwner)</text>
</g>
<!-- 13&#45;&gt;12 -->
<g id="edge4" class="edge">
<title>13&#45;&gt;12</title>
<path fill="none" stroke="#000000" d="M2494.0701,-1001.6461C2475.0224,-947.1152 2452.2599,-881.9495 2437.7465,-840.3997"/>
<polygon fill="none" stroke="#000000" points="2490.8564,-1003.0595 2497.4583,-1011.346 2497.4648,-1000.7511 2490.8564,-1003.0595"/>
</g>
<!-- 17 -->
<g id="node16" class="node">
<title>17</title>
<polygon fill="#f2f2f2" stroke="#000000" points="2495.8531,-748.5 2495.8531,-848.5 2770.3687,-848.5 2770.3687,-748.5 2495.8531,-748.5"/>
<text text-anchor="middle" x="2633.1109" y="-831.9" font-family="Times,serif" font-size="14.00" fill="#000000">SimpleWallet</text>
<polyline fill="none" stroke="#000000" points="2495.8531,-823.7 2770.3687,-823.7 "/>
<text text-anchor="start" x="2503.8531" y="-807.1" font-family="Times,serif" font-size="14.00" fill="#000000">«event» Deposited(address from, uint value)</text>
<text text-anchor="start" x="2503.8531" y="-790.3" font-family="Times,serif" font-size="14.00" fill="#000000">+ «fallback»()</text>
<text text-anchor="start" x="2503.8531" y="-773.5" font-family="Times,serif" font-size="14.00" fill="#000000">+ transferOut(address target)</text>
<text text-anchor="start" x="2503.8531" y="-756.7" font-family="Times,serif" font-size="14.00" fill="#000000">+ sendOut(address target)</text>
</g>
<!-- 13&#45;&gt;17 -->
<g id="edge6" class="edge">
<title>13&#45;&gt;17</title>
<path fill="none" stroke="#000000" d="M2562.1626,-1001.6148C2579.9655,-950.6478 2601.0109,-890.3977 2615.533,-848.8229"/>
<polygon fill="none" stroke="#000000" points="2558.757,-1000.7511 2558.7635,-1011.346 2565.3654,-1003.0595 2558.757,-1000.7511"/>
</g>
<!-- 14 -->
<g id="node13" class="node">
<title>14</title>
<polygon fill="#f2f2f2" stroke="#000000" points="2773.5607,-897.9 2773.5607,-1300.3 3070.6611,-1300.3 3070.6611,-897.9 2773.5607,-897.9"/>
<text text-anchor="middle" x="2922.1109" y="-1283.7" font-family="Times,serif" font-size="14.00" fill="#000000">Debuggable</text>
<polyline fill="none" stroke="#000000" points="2773.5607,-1275.5 3070.6611,-1275.5 "/>
<text text-anchor="start" x="2781.5607" y="-1258.9" font-family="Times,serif" font-size="14.00" fill="#000000">«event» LogUint256(string label, uint256 value)</text>
<text text-anchor="start" x="2781.5607" y="-1242.1" font-family="Times,serif" font-size="14.00" fill="#000000">«event» LogUint64(string label, uint64 b)</text>
<text text-anchor="start" x="2781.5607" y="-1225.3" font-family="Times,serif" font-size="14.00" fill="#000000">«event» LogUint32(string label, uint32 b)</text>
<text text-anchor="start" x="2781.5607" y="-1208.5" font-family="Times,serif" font-size="14.00" fill="#000000">«event» LogUint8(string label, uint8 b)</text>
<text text-anchor="start" x="2781.5607" y="-1191.7" font-family="Times,serif" font-size="14.00" fill="#000000">«event» LogInt256(string label, int256 value)</text>
<text text-anchor="start" x="2781.5607" y="-1174.9" font-family="Times,serif" font-size="14.00" fill="#000000">«event» LogAddress(string label, address addr)</text>
<text text-anchor="start" x="2781.5607" y="-1158.1" font-family="Times,serif" font-size="14.00" fill="#000000">«event» LogBytes32(string label, bytes32 b)</text>
<text text-anchor="start" x="2781.5607" y="-1141.3" font-family="Times,serif" font-size="14.00" fill="#000000">«event» LogBytes4(string label, bytes4 b)</text>
<text text-anchor="start" x="2781.5607" y="-1124.5" font-family="Times,serif" font-size="14.00" fill="#000000">«event» LogBytes1(string label, bytes1 b)</text>
<text text-anchor="start" x="2781.5607" y="-1107.7" font-family="Times,serif" font-size="14.00" fill="#000000">«event» LogBytes(string label, bytes b)</text>
<text text-anchor="start" x="2781.5607" y="-1090.9" font-family="Times,serif" font-size="14.00" fill="#000000">«event» LogBool(string label, bool b)</text>
<text text-anchor="start" x="2781.5607" y="-1074.1" font-family="Times,serif" font-size="14.00" fill="#000000">+ timeNow() : (uint256)</text>
<text text-anchor="start" x="2781.5607" y="-1057.3" font-family="Times,serif" font-size="14.00" fill="#000000"># logBytes(string s, bytes b)</text>
<text text-anchor="start" x="2781.5607" y="-1040.5" font-family="Times,serif" font-size="14.00" fill="#000000"># logUint64(string s, uint64 x)</text>
<text text-anchor="start" x="2781.5607" y="-1023.7" font-family="Times,serif" font-size="14.00" fill="#000000"># logBytes1(string s, bytes1 x)</text>
<text text-anchor="start" x="2781.5607" y="-1006.9" font-family="Times,serif" font-size="14.00" fill="#000000"># logUint32(string s, uint32 x)</text>
<text text-anchor="start" x="2781.5607" y="-990.1" font-family="Times,serif" font-size="14.00" fill="#000000"># logAddress(string s, address x)</text>
<text text-anchor="start" x="2781.5607" y="-973.3" font-family="Times,serif" font-size="14.00" fill="#000000"># logUint256(string s, uint256 x)</text>
<text text-anchor="start" x="2781.5607" y="-956.5" font-family="Times,serif" font-size="14.00" fill="#000000"># logInt256(string s, int256 x)</text>
<text text-anchor="start" x="2781.5607" y="-939.7" font-family="Times,serif" font-size="14.00" fill="#000000"># logBytes32(string s, bytes32 b)</text>
<text text-anchor="start" x="2781.5607" y="-922.9" font-family="Times,serif" font-size="14.00" fill="#000000"># logBool(string s, bool b)</text>
<text text-anchor="start" x="2781.5607" y="-906.1" font-family="Times,serif" font-size="14.00" fill="#000000"># logUint8(string s, uint8 i)</text>
</g>
<!-- 15 -->
<g id="node14" class="node">
<title>15</title>
<polygon fill="#f2f2f2" stroke="#000000" points="2888.5503,-748.5 2888.5503,-848.5 3161.6715,-848.5 3161.6715,-748.5 2888.5503,-748.5"/>
<text text-anchor="middle" x="3025.1109" y="-831.9" font-family="Times,serif" font-size="14.00" fill="#000000">ERC721TokenMock</text>
<polyline fill="none" stroke="#000000" points="2888.5503,-823.7 3161.6715,-823.7 "/>
<text text-anchor="start" x="2896.5503" y="-807.1" font-family="Times,serif" font-size="14.00" fill="#000000">+ constructor(string name, string symbol)</text>
<text text-anchor="start" x="2896.5503" y="-790.3" font-family="Times,serif" font-size="14.00" fill="#000000">+ mint(address _to, uint256 _tokenId)</text>
<text text-anchor="start" x="2896.5503" y="-773.5" font-family="Times,serif" font-size="14.00" fill="#000000">+ burn(uint256 _tokenId)</text>
<text text-anchor="start" x="2896.5503" y="-756.7" font-family="Times,serif" font-size="14.00" fill="#000000">+ setTokenURI(uint256 _tokenId, string _uri)</text>
</g>
<!-- 16 -->
<g id="node15" class="node">
<title>16</title>
<polygon fill="#f2f2f2" stroke="#000000" points="3178.6372,-1015.5 3178.6372,-1182.7 3469.5846,-1182.7 3469.5846,-1015.5 3178.6372,-1015.5"/>
<text text-anchor="middle" x="3324.1109" y="-1166.1" font-family="Times,serif" font-size="14.00" fill="#000000">Selector</text>
<polyline fill="none" stroke="#000000" points="3178.6372,-1157.9 3469.5846,-1157.9 "/>
<text text-anchor="start" x="3186.6372" y="-1141.3" font-family="Times,serif" font-size="14.00" fill="#000000">+ invocationSuccessSelector() : (bytes32)</text>
<text text-anchor="start" x="3186.6372" y="-1124.5" font-family="Times,serif" font-size="14.00" fill="#000000">+ authorizedSelector() : (bytes32)</text>
<text text-anchor="start" x="3186.6372" y="-1107.7" font-family="Times,serif" font-size="14.00" fill="#000000">+ emergencyRecoverySelector() : (bytes32)</text>
<text text-anchor="start" x="3186.6372" y="-1090.9" font-family="Times,serif" font-size="14.00" fill="#000000">+ recoveryAddressChangedSelector() : (bytes32)</text>
<text text-anchor="start" x="3186.6372" y="-1074.1" font-family="Times,serif" font-size="14.00" fill="#000000">+ invoke0Selector() : (bytes4)</text>
<text text-anchor="start" x="3186.6372" y="-1057.3" font-family="Times,serif" font-size="14.00" fill="#000000">+ invoke1CosignerSendsSelector() : (bytes4)</text>
<text text-anchor="start" x="3186.6372" y="-1040.5" font-family="Times,serif" font-size="14.00" fill="#000000">+ invoke2Selector() : (bytes4)</text>
<text text-anchor="start" x="3186.6372" y="-1023.7" font-family="Times,serif" font-size="14.00" fill="#000000">+ isValidSignatureSelector() : (bytes4)</text>
</g>
<!-- 18 -->
<g id="node17" class="node">
<title>18</title>
<polygon fill="#f2f2f2" stroke="#000000" points="3179.9612,-773.7 3179.9612,-823.3 3536.2606,-823.3 3536.2606,-773.7 3179.9612,-773.7"/>
<text text-anchor="middle" x="3358.1109" y="-806.7" font-family="Times,serif" font-size="14.00" fill="#000000">StandardTokenMock</text>
<polyline fill="none" stroke="#000000" points="3179.9612,-798.5 3536.2606,-798.5 "/>
<text text-anchor="start" x="3187.9612" y="-781.9" font-family="Times,serif" font-size="14.00" fill="#000000">+ constructor(address initialAccount, uint256 initialBalance)</text>
</g>
<!-- 19 -->
<g id="node18" class="node">
<title>19</title>
<polygon fill="#f2f2f2" stroke="#000000" points="3487.7392,-1074.3 3487.7392,-1123.9 3602.4826,-1123.9 3602.4826,-1074.3 3487.7392,-1074.3"/>
<text text-anchor="middle" x="3545.1109" y="-1107.3" font-family="Times,serif" font-size="14.00" fill="#000000">ThrowOnPayable</text>
<polyline fill="none" stroke="#000000" points="3487.7392,-1099.1 3602.4826,-1099.1 "/>
<text text-anchor="start" x="3495.7392" y="-1082.5" font-family="Times,serif" font-size="14.00" fill="#000000">+ «fallback»()</text>
</g>
<!-- 20 -->
<g id="node19" class="node">
<title>20</title>
<polygon fill="#f2f2f2" stroke="#000000" points="306.0723,-.5 306.0723,-50.1 416.1495,-50.1 416.1495,-.5 306.0723,-.5"/>
<text text-anchor="middle" x="361.1109" y="-33.5" font-family="Times,serif" font-size="14.00" fill="#000000">CloneableWallet</text>
<polyline fill="none" stroke="#000000" points="306.0723,-25.3 416.1495,-25.3 "/>
<text text-anchor="start" x="314.0723" y="-8.7" font-family="Times,serif" font-size="14.00" fill="#000000">+ constructor()</text>
</g>
<!-- 21&#45;&gt;20 -->
<g id="edge8" class="edge">
<title>21&#45;&gt;20</title>
<path fill="none" stroke="#000000" d="M406.424,-79.0618C397.1692,-68.0815 388.9845,-58.3707 382.207,-50.3295"/>
<polygon fill="none" stroke="#000000" points="403.877,-81.4708 412.9979,-86.8615 409.2294,-76.9595 403.877,-81.4708"/>
</g>
<!-- 22 -->
<g id="node21" class="node">
<title>22</title>
<polygon fill="#f2f2f2" stroke="#000000" points="434.472,-.5 434.472,-50.1 907.7498,-50.1 907.7498,-.5 434.472,-.5"/>
<text text-anchor="middle" x="671.1109" y="-33.5" font-family="Times,serif" font-size="14.00" fill="#000000">FullWallet</text>
<polyline fill="none" stroke="#000000" points="434.472,-25.3 907.7498,-25.3 "/>
<text text-anchor="start" x="442.472" y="-8.7" font-family="Times,serif" font-size="14.00" fill="#000000">+ constructor(address _authorized, uint256 _cosigner, address _recoveryAddress)</text>
</g>
<!-- 21&#45;&gt;22 -->
<g id="edge12" class="edge">
<title>21&#45;&gt;22</title>
<path fill="none" stroke="#000000" d="M671.1109,-76.5506C671.1109,-66.5974 671.1109,-57.7522 671.1109,-50.3295"/>
<polygon fill="none" stroke="#000000" points="667.611,-76.8614 671.1109,-86.8615 674.611,-76.8615 667.611,-76.8614"/>
</g>
<!-- 21&#45;&gt;23 -->
<g id="edge13" class="edge">
<title>21&#45;&gt;23</title>
<path fill="none" stroke="#000000" d="M995.1021,-96.2282C1000.0978,-92.9466 1005.1021,-89.7348 1010.1109,-86.6 1033.2658,-72.1083 1060.4295,-59.8651 1085.3393,-50.2219"/>
<polygon fill="none" stroke="#000000" points="993.0905,-93.3626 986.7033,-101.8157 996.9679,-99.1907 993.0905,-93.3626"/>
</g>
<!-- 24 -->
<g id="node23" class="node">
<title>24</title>
<polygon fill="#f2f2f2" stroke="#000000" points="1798.4586,-756.9 1798.4586,-840.1 2155.7632,-840.1 2155.7632,-756.9 1798.4586,-756.9"/>
<text text-anchor="middle" x="1977.1109" y="-823.5" font-family="Times,serif" font-size="14.00" fill="#000000">CloneFactory</text>
<polyline fill="none" stroke="#000000" points="1798.4586,-815.3 2155.7632,-815.3 "/>
<text text-anchor="start" x="1806.4586" y="-798.7" font-family="Times,serif" font-size="14.00" fill="#000000">«event» CloneCreated(address target, address clone)</text>
<text text-anchor="start" x="1806.4586" y="-781.9" font-family="Times,serif" font-size="14.00" fill="#000000"># createClone(address target) : (address result)</text>
<text text-anchor="start" x="1806.4586" y="-765.1" font-family="Times,serif" font-size="14.00" fill="#000000"># createClone2(address target, bytes32 salt) : (address result)</text>
</g>
<!-- 24&#45;&gt;26 -->
<g id="edge17" class="edge">
<title>24&#45;&gt;26</title>
<path fill="none" stroke="#000000" d="M2012.5469,-748.0938C2061.0996,-679.0297 2148.8117,-554.2632 2206.2516,-472.5574"/>
<polygon fill="none" stroke="#000000" points="2009.4254,-746.4483 2006.5375,-756.642 2015.1519,-750.4742 2009.4254,-746.4483"/>
</g>
<!-- 25 -->
<g id="node24" class="node">
<title>25</title>
<polygon fill="#f2f2f2" stroke="#000000" points="2173.8265,-773.7 2173.8265,-823.3 2350.3953,-823.3 2350.3953,-773.7 2173.8265,-773.7"/>
<text text-anchor="middle" x="2262.1109" y="-806.7" font-family="Times,serif" font-size="14.00" fill="#000000">FullWalletByteCode</text>
<polyline fill="none" stroke="#000000" points="2173.8265,-798.5 2350.3953,-798.5 "/>
<text text-anchor="start" x="2181.8265" y="-781.9" font-family="Times,serif" font-size="14.00" fill="#000000"># fullWalletBytecode : bytes</text>
</g>
<!-- 25&#45;&gt;26 -->
<g id="edge15" class="edge">
<title>25&#45;&gt;26</title>
<path fill="none" stroke="#000000" d="M2262.1109,-763.4016C2262.1109,-699.0032 2262.1109,-560.5043 2262.1109,-472.3397"/>
<polygon fill="none" stroke="#000000" points="2258.611,-763.4463 2262.1109,-773.4464 2265.611,-763.4464 2258.611,-763.4463"/>
</g>
<!-- 27 -->
<g id="node26" class="node">
<title>27</title>
<polygon fill="#f2f2f2" stroke="#000000" points="3620.3571,-1057.5 3620.3571,-1140.7 3921.8647,-1140.7 3921.8647,-1057.5 3620.3571,-1057.5"/>
<text text-anchor="middle" x="3771.1109" y="-1124.1" font-family="Times,serif" font-size="14.00" fill="#000000">«Interface»</text>
<text text-anchor="middle" x="3771.1109" y="-1107.3" font-family="Times,serif" font-size="14.00" fill="#000000">CompositeInterface</text>
<polyline fill="none" stroke="#000000" points="3620.3571,-1099.1 3921.8647,-1099.1 "/>
<text text-anchor="start" x="3628.3571" y="-1082.5" font-family="Times,serif" font-size="14.00" fill="#000000">+ doSomething() : (uint256)</text>
<text text-anchor="start" x="3628.3571" y="-1065.7" font-family="Times,serif" font-size="14.00" fill="#000000">+ doSomethingElse(uint256 _paramter) : (uint256)</text>
</g>
<!-- 28 -->
<g id="node27" class="node">
<title>28</title>
<polygon fill="#f2f2f2" stroke="#000000" points="3764.2498,-736.1 3764.2498,-860.9 4071.972,-860.9 4071.972,-736.1 3764.2498,-736.1"/>
<text text-anchor="middle" x="3918.1109" y="-844.3" font-family="Times,serif" font-size="14.00" fill="#000000">Delegate</text>
<polyline fill="none" stroke="#000000" points="3764.2498,-836.1 4071.972,-836.1 "/>
<text text-anchor="start" x="3772.2498" y="-819.5" font-family="Times,serif" font-size="14.00" fill="#000000"># storedValue : uint256</text>
<polyline fill="none" stroke="#000000" points="3764.2498,-811.3 4071.972,-811.3 "/>
<text text-anchor="start" x="3772.2498" y="-794.7" font-family="Times,serif" font-size="14.00" fill="#000000">+ doSomething() : (uint256)</text>
<text text-anchor="start" x="3772.2498" y="-777.9" font-family="Times,serif" font-size="14.00" fill="#000000">+ doSomethingElse(uint256 _parameter) : (uint256)</text>
<text text-anchor="start" x="3772.2498" y="-761.1" font-family="Times,serif" font-size="14.00" fill="#000000">+ doSomethingThatReverts()</text>
<text text-anchor="start" x="3772.2498" y="-744.3" font-family="Times,serif" font-size="14.00" fill="#000000">+ doSomethingThatWritesToStorage()</text>
</g>
<!-- 27&#45;&gt;28 -->
<g id="edge19" class="edge">
<title>27&#45;&gt;28</title>
<path fill="none" stroke="#000000" d="M3796.0986,-1048.0027C3821.3478,-996.3707 3860.3988,-916.5154 3887.4934,-861.1097"/>
<polygon fill="none" stroke="#000000" points="3792.7996,-1046.7819 3791.5506,-1057.3029 3799.0879,-1049.8571 3792.7996,-1046.7819"/>
</g>
<!-- 29 -->
<g id="node28" class="node">
<title>29</title>
<polygon fill="#f2f2f2" stroke="#000000" points="3939.922,-1065.9 3939.922,-1132.3 4114.2998,-1132.3 4114.2998,-1065.9 3939.922,-1065.9"/>
<text text-anchor="middle" x="4027.1109" y="-1115.7" font-family="Times,serif" font-size="14.00" fill="#000000">«Interface»</text>
<text text-anchor="middle" x="4027.1109" y="-1098.9" font-family="Times,serif" font-size="14.00" fill="#000000">SimpleInterface</text>
<polyline fill="none" stroke="#000000" points="3939.922,-1090.7 4114.2998,-1090.7 "/>
<text text-anchor="start" x="3947.922" y="-1074.1" font-family="Times,serif" font-size="14.00" fill="#000000">+ doSomething() : (uint256)</text>
</g>
<!-- 29&#45;&gt;28 -->
<g id="edge18" class="edge">
<title>29&#45;&gt;28</title>
<path fill="none" stroke="#000000" d="M4011.6134,-1056.3609C3993.1009,-1005.3072 3961.9776,-919.4754 3940.7666,-860.9799"/>
<polygon fill="none" stroke="#000000" points="4008.3302,-1057.5741 4015.0295,-1065.782 4014.9109,-1055.1878 4008.3302,-1057.5741"/>
</g>
<!-- undefined -->
<g id="node30" class="node">
<title>undefined</title>
<polygon fill="#f2f2f2" stroke="#000000" points="3089.1207,-1081.1 3089.1207,-1117.1 3161.1011,-1117.1 3161.1011,-1081.1 3089.1207,-1081.1"/>
<text text-anchor="middle" x="3125.1109" y="-1094.9" font-family="Times,serif" font-size="14.00" fill="#000000">undefined</text>
</g>
<!-- undefined&#45;&gt;15 -->
<g id="edge5" class="edge">
<title>undefined&#45;&gt;15</title>
<path fill="none" stroke="#000000" d="M3121.464,-1071.0704C3115.7279,-1031.425 3102.8395,-957.1453 3080.1109,-897.4 3073.8587,-880.9653 3065.2557,-863.9339 3056.7098,-848.7317"/>
<polygon fill="none" stroke="#000000" points="3118.0104,-1071.6457 3122.8635,-1081.0637 3124.9427,-1070.6749 3118.0104,-1071.6457"/>
</g>
<!-- undefined&#45;&gt;18 -->
<g id="edge7" class="edge">
<title>undefined&#45;&gt;18</title>
<path fill="none" stroke="#000000" d="M3124.2745,-1070.7455C3124.4816,-1028.6477 3130.6058,-949.0428 3170.1109,-897.4 3196.6637,-862.689 3238.9167,-838.9218 3276.6456,-823.4041"/>
<polygon fill="none" stroke="#000000" points="3120.7751,-1070.8652 3124.3368,-1080.8433 3127.7749,-1070.8219 3120.7751,-1070.8652"/>
</g>
</g>
</svg>
